<svg width="1280" height="760" viewBox="0 0 1280 760" fill="none" xmlns="http://www.w3.org/2000/svg">
  <rect width="1280" height="760" rx="28" fill="#F6F2EA"/>
  <text x="72" y="88" fill="#17324D" font-size="34" font-weight="700" font-family="Inter, PingFang SC, Hiragino Sans GB, Microsoft YaHei, sans-serif">OpenViking 想解决的不是“多存一点资料”</text>
  <text x="72" y="124" fill="#5A6C7D" font-size="18" font-family="Inter, PingFang SC, Hiragino Sans GB, Microsoft YaHei, sans-serif">它在做的是，把 Agent 原本分散的上下文重新组织成一个可浏览、可检索、可沉淀的统一系统。</text>

  <rect x="70" y="190" width="270" height="118" rx="24" fill="#F3D9C7"/>
  <text x="102" y="236" fill="#17324D" font-size="24" font-weight="700" font-family="Inter, PingFang SC, Hiragino Sans GB, Microsoft YaHei, sans-serif">聊天记录与 Prompt</text>
  <text x="102" y="272" fill="#495A69" font-size="17" font-family="Inter, PingFang SC, Hiragino Sans GB, Microsoft YaHei, sans-serif">规则、用户偏好、会话片段</text>

  <rect x="70" y="332" width="270" height="118" rx="24" fill="#E6EDD7"/>
  <text x="102" y="378" fill="#17324D" font-size="24" font-weight="700" font-family="Inter, PingFang SC, Hiragino Sans GB, Microsoft YaHei, sans-serif">知识库与 RAG</text>
  <text x="102" y="414" fill="#495A69" font-size="17" font-family="Inter, PingFang SC, Hiragino Sans GB, Microsoft YaHei, sans-serif">网页、文档、仓库、向量切片</text>

  <rect x="70" y="474" width="270" height="118" rx="24" fill="#DCE7F5"/>
  <text x="102" y="520" fill="#17324D" font-size="24" font-weight="700" font-family="Inter, PingFang SC, Hiragino Sans GB, Microsoft YaHei, sans-serif">工具与技能</text>
  <text x="102" y="556" fill="#495A69" font-size="17" font-family="Inter, PingFang SC, Hiragino Sans GB, Microsoft YaHei, sans-serif">脚本、MCP 工具、操作经验</text>

  <path d="M340 248H430" stroke="#C97845" stroke-width="5" stroke-linecap="round"/>
  <path d="M340 390H430" stroke="#8EAA63" stroke-width="5" stroke-linecap="round"/>
  <path d="M340 532H430" stroke="#6B92C8" stroke-width="5" stroke-linecap="round"/>
  <path d="M430 248L414 238V258L430 248Z" fill="#C97845"/>
  <path d="M430 390L414 380V400L430 390Z" fill="#8EAA63"/>
  <path d="M430 532L414 522V542L430 532Z" fill="#6B92C8"/>

  <rect x="430" y="214" width="350" height="356" rx="34" fill="#17324D"/>
  <text x="510" y="276" fill="#F9FBFD" font-size="34" font-weight="700" font-family="Inter, PingFang SC, Hiragino Sans GB, Microsoft YaHei, sans-serif">OpenViking</text>
  <text x="505" y="316" fill="#D7E3EF" font-size="20" font-family="Inter, PingFang SC, Hiragino Sans GB, Microsoft YaHei, sans-serif">Agent-native context database</text>

  <rect x="486" y="360" width="238" height="62" rx="18" fill="#274665"/>
  <text x="515" y="400" fill="#F9FBFD" font-size="22" font-weight="700" font-family="Inter, PingFang SC, Hiragino Sans GB, Microsoft YaHei, sans-serif">统一组织上下文</text>

  <rect x="486" y="438" width="238" height="62" rx="18" fill="#274665"/>
  <text x="515" y="478" fill="#F9FBFD" font-size="22" font-weight="700" font-family="Inter, PingFang SC, Hiragino Sans GB, Microsoft YaHei, sans-serif">分层加载与检索</text>

  <rect x="486" y="516" width="238" height="62" rx="18" fill="#274665"/>
  <text x="515" y="556" fill="#F9FBFD" font-size="22" font-weight="700" font-family="Inter, PingFang SC, Hiragino Sans GB, Microsoft YaHei, sans-serif">沉淀长期记忆</text>

  <path d="M780 392H850" stroke="#17324D" stroke-width="5" stroke-linecap="round"/>
  <path d="M850 392L834 382V402L850 392Z" fill="#17324D"/>

  <rect x="854" y="180" width="350" height="414" rx="30" fill="#FFFDFC" stroke="#E4DACB" stroke-width="2"/>
  <text x="892" y="238" fill="#17324D" font-size="28" font-weight="700" font-family="Inter, PingFang SC, Hiragino Sans GB, Microsoft YaHei, sans-serif">viking://</text>

  <rect x="890" y="280" width="276" height="78" rx="18" fill="#FFF0E4"/>
  <text x="920" y="328" fill="#17324D" font-size="24" font-weight="700" font-family="Inter, PingFang SC, Hiragino Sans GB, Microsoft YaHei, sans-serif">resources/</text>
  <text x="1048" y="328" fill="#556676" font-size="17" font-family="Inter, PingFang SC, Hiragino Sans GB, Microsoft YaHei, sans-serif">文档与资料</text>

  <rect x="890" y="380" width="276" height="78" rx="18" fill="#EEF5E3"/>
  <text x="920" y="428" fill="#17324D" font-size="24" font-weight="700" font-family="Inter, PingFang SC, Hiragino Sans GB, Microsoft YaHei, sans-serif">user/</text>
  <text x="1000" y="428" fill="#556676" font-size="17" font-family="Inter, PingFang SC, Hiragino Sans GB, Microsoft YaHei, sans-serif">用户偏好与习惯</text>

  <rect x="890" y="480" width="276" height="78" rx="18" fill="#E7EFFA"/>
  <text x="920" y="528" fill="#17324D" font-size="24" font-weight="700" font-family="Inter, PingFang SC, Hiragino Sans GB, Microsoft YaHei, sans-serif">agent/</text>
  <text x="1004" y="528" fill="#556676" font-size="17" font-family="Inter, PingFang SC, Hiragino Sans GB, Microsoft YaHei, sans-serif">技能与任务经验</text>

  <rect x="72" y="644" width="1136" height="70" rx="18" fill="#FFF8EF" stroke="#E3D7C7" stroke-width="2"/>
  <text x="104" y="688" fill="#17324D" font-size="20" font-weight="700" font-family="Inter, PingFang SC, Hiragino Sans GB, Microsoft YaHei, sans-serif">核心变化：</text>
  <text x="236" y="688" fill="#556676" font-size="20" font-family="Inter, PingFang SC, Hiragino Sans GB, Microsoft YaHei, sans-serif">从“到处搜一点上下文”变成“在统一目录里先定位，再按需深读和沉淀”。</text>
</svg>
